<svg xmlns="http://www.w3.org/2000/svg" xmlns:xlink="http://www.w3.org/1999/xlink" version="1.1" id="Layer_1" x="0" y="0" width="343.24" height="333.95" viewBox="0 0 343.24 333.95" enable-background="new 0 0 343.239 333.954" xml:space="preserve">
  <path fill="#EDEBEB" d="M184.84 263.06l-10.89-156.27h-0.33L158.7 0l-40.13 119.72L77.38 0 22.37 273.3l67.52 48.46c9.4 7.79 22.5 12.12 39.84 12.12C173 333.88 187.75 304.58 184.84 263.06z"/>
  <path fill="#EDEBEB" d="M295.44 217.67l41.97-75.76L291.99 38.12 185.2 0l0.97 107.27 19.72 223.52h42.35l31.54-44.03 -21.41-47.35C279.93 238.51 291.41 230.58 295.44 217.67z"/>
  <path fill="#FF6A0D" d="M158.7 0l10.73 192.54c3.19 57.21-20.23 99.19-86.65 99.19 -68.71 0-90.25-41.98-80.6-99.19L34.65 0h42.73L59.27 198.15c-1.93 21.13 5.25 36.07 26.59 36.07 21.34 0 30.11-14.94 30.44-36.07L119.35 0H158.7z"/>
  <path fill="#FF6A0D" d="M185.2 0h63.34c43.11 0 64.15 16.34 73.72 45.82l16.43 50.63c12.55 38.65 0.64 64.59-55.02 64.59h-26.61l22.71 125.53h-64.88L185.2 0zM232.84 27.16l17.23 95.25h19.23c17.85 0 23.71-7.8 20.07-22.48L275.67 44.52c-2.92-11.79-10.98-17.36-26.31-17.36H232.84z"/>
</svg>
